<svg width="409" height="75" viewBox="0 0 409 75" fill="none" xmlns="http://www.w3.org/2000/svg">
<path d="M41.2559 7.18201H34.8975C34.0773 7.18201 33.4123 7.84685 33.4123 8.66716V13.3422C33.4123 14.1625 34.0773 14.8273 34.8975 14.8273H41.2559C42.076 14.8273 42.741 14.1625 42.741 13.3422V8.66716C42.741 7.84666 42.076 7.18201 41.2559 7.18201ZM39.7705 11.8568H36.3824V10.1521H39.7705V11.8568Z" fill="#A3A3A3" stroke="#A3A3A3" stroke-width="0.390625"/>
<path d="M15.4088 7.18201H9.05039C8.23027 7.18201 7.56523 7.84685 7.56523 8.66716V13.3422C7.56523 14.1623 8.23027 14.8273 9.05039 14.8273H15.4088C16.2289 14.8273 16.8939 14.1625 16.8939 13.3422V8.66716C16.8939 7.84666 16.2289 7.18201 15.4088 7.18201ZM10.5353 11.8568V10.1521H13.9234V11.8568H10.5353Z" fill="#A3A3A3" stroke="#A3A3A3" stroke-width="0.390625"/>
<path d="M28.3322 7.18201H21.9738C21.1537 7.18201 20.4887 7.84685 20.4887 8.66716V13.3422C20.4887 14.1625 21.1537 14.8273 21.9738 14.8273H28.3322C29.1523 14.8273 29.8174 14.1625 29.8174 13.3422V8.66716C29.8174 7.84666 29.1525 7.18201 28.3322 7.18201ZM26.8469 11.8568H23.4588V10.1521H26.8469V11.8568Z" fill="#A3A3A3" stroke="#A3A3A3" stroke-width="0.390625"/>
<path d="M80.0264 7.18201H73.668C72.8477 7.18201 72.1828 7.84685 72.1828 8.66716V13.3422C72.1828 14.1625 72.8477 14.8273 73.668 14.8273H80.0264C80.8467 14.8273 81.5115 14.1625 81.5115 13.3422V8.66716C81.5115 7.84666 80.8467 7.18201 80.0264 7.18201ZM78.541 11.8568H75.1529V10.1521H78.541V11.8568Z" fill="#A3A3A3" stroke="#A3A3A3" stroke-width="0.390625"/>
<path d="M67.1027 7.18201H60.7443C59.924 7.18201 59.2592 7.84685 59.2592 8.66716V13.3422C59.2592 14.1625 59.924 14.8273 60.7443 14.8273H67.1027C67.923 14.8273 68.5879 14.1625 68.5879 13.3422V8.66716C68.5879 7.84666 67.9232 7.18201 67.1027 7.18201ZM65.6174 11.8568H62.2293V10.1521H65.6174V11.8568Z" fill="#A3A3A3" stroke="#A3A3A3" stroke-width="0.390625"/>
<path d="M67.1025 59.8074H60.7441C59.9238 59.8074 59.259 60.4723 59.259 61.2926V66.1654C59.259 66.9858 59.9238 67.6506 60.7441 67.6506H67.1025C67.9229 67.6506 68.5877 66.9858 68.5877 66.1654V61.2926C68.5877 60.4723 67.923 59.8074 67.1025 59.8074ZM62.2295 64.6801V62.7776H65.6176V64.6801H62.2295Z" fill="#A3A3A3" stroke="#A3A3A3" stroke-width="0.390625"/>
<path d="M28.332 59.8074H21.9736C21.1535 59.8074 20.4885 60.4723 20.4885 61.2926V66.1654C20.4885 66.9858 21.1535 67.6506 21.9736 67.6506H28.332C29.1522 67.6506 29.8172 66.9858 29.8172 66.1654V61.2926C29.8172 60.4723 29.1523 59.8074 28.332 59.8074ZM26.8471 64.6801H23.459V62.7776H26.8471V64.6801Z" fill="#A3A3A3" stroke="#A3A3A3" stroke-width="0.390625"/>
<path d="M41.2557 59.8074H34.8973C34.0771 59.8074 33.4121 60.4723 33.4121 61.2926V66.1654C33.4121 66.9858 34.0771 67.6506 34.8973 67.6506H41.2557C42.0758 67.6506 42.7408 66.9858 42.7408 66.1654V61.2926C42.7408 60.4723 42.0758 59.8074 41.2557 59.8074ZM39.7707 64.6801H36.3826V62.7776H39.7707V64.6801Z" fill="#A3A3A3" stroke="#A3A3A3" stroke-width="0.390625"/>
<path d="M99.5148 1H12.2293C11.4092 1 10.7441 1.66484 10.7441 2.48516C10.7441 3.30547 11.4092 3.97031 12.2293 3.97031H98.0297V18.2234H95.8469C93.6086 18.2234 91.7879 20.0441 91.7879 22.2822V52.4787C91.7879 54.7168 93.6086 56.5375 95.8469 56.5375H98.0297V70.8623H3.97031V56.5375H6.15332C8.39141 56.5375 10.2121 54.7168 10.2121 52.4787V22.2822C10.2121 20.0441 8.39141 18.2234 6.15332 18.2234H3.97031V2.48516C3.97031 1.66484 3.30527 1 2.48516 1C1.66504 1 1 1.66484 1 2.48516V19.7086V55.0523V72.3475C1 73.1678 1.66504 73.8326 2.48516 73.8326H99.5148C100.335 73.8326 101 73.1678 101 72.3475V55.0523V19.7086V2.48516C101 1.66484 100.335 1 99.5148 1ZM3.97031 21.1936H6.15332C6.75352 21.1936 7.2418 21.6818 7.2418 22.282V52.4785C7.2418 53.0787 6.75352 53.567 6.15332 53.567H3.97031V21.1936ZM98.0297 53.5672H95.8469C95.2467 53.5672 94.7582 53.0789 94.7582 52.4787V22.2822C94.7582 21.682 95.2467 21.1937 95.8469 21.1937H98.0297V53.5672Z" fill="#A3A3A3" stroke="#A3A3A3" stroke-width="0.390625"/>
<path d="M92.95 7.18201H86.5916C85.7713 7.18201 85.1064 7.84685 85.1064 8.66716V13.3422C85.1064 14.1625 85.7713 14.8273 86.5916 14.8273H92.95C93.7703 14.8273 94.4352 14.1625 94.4352 13.3422V8.66716C94.435 7.84666 93.7703 7.18201 92.95 7.18201ZM91.4648 11.8568H88.0768V10.1521H91.4648V11.8568Z" fill="#A3A3A3" stroke="#A3A3A3" stroke-width="0.390625"/>
<path d="M15.4088 59.8074H9.05039C8.23027 59.8074 7.56523 60.4723 7.56523 61.2926V66.1654C7.56523 66.9858 8.23027 67.6506 9.05039 67.6506H15.4088C16.2289 67.6506 16.8939 66.9858 16.8939 66.1654V61.2926C16.8939 60.4723 16.2289 59.8074 15.4088 59.8074ZM10.5353 64.6801V62.7776H13.9234V64.6801H10.5353Z" fill="#A3A3A3" stroke="#A3A3A3" stroke-width="0.390625"/>
<path d="M54.1793 7.18182H47.8209C47.0008 7.18182 46.3357 7.84667 46.3357 8.66698V13.342C46.3357 14.1623 47.0008 14.8271 47.8209 14.8271H54.1793C54.9996 14.8271 55.6644 14.1623 55.6644 13.342V8.66698C55.6644 7.84667 54.9996 7.18182 54.1793 7.18182ZM52.6941 11.857H49.306V10.1523H52.6941V11.857Z" fill="#A3A3A3" stroke="#A3A3A3" stroke-width="0.390625"/>
<path d="M80.0262 59.8074H73.6678C72.8475 59.8074 72.1826 60.4723 72.1826 61.2926V66.1654C72.1826 66.9858 72.8475 67.6506 73.6678 67.6506H80.0262C80.8465 67.6506 81.5113 66.9858 81.5113 66.1654V61.2926C81.5113 60.4723 80.8465 59.8074 80.0262 59.8074ZM78.5412 64.6801H75.1531V62.7776H78.5412V64.6801Z" fill="#A3A3A3" stroke="#A3A3A3" stroke-width="0.390625"/>
<path d="M54.1793 59.8074H47.8209C47.0008 59.8074 46.3357 60.4723 46.3357 61.2926V66.1654C46.3357 66.9858 47.0008 67.6506 47.8209 67.6506H54.1793C54.9996 67.6506 55.6644 66.9858 55.6644 66.1654V61.2926C55.6644 60.4723 54.9996 59.8074 54.1793 59.8074ZM52.6941 64.6801H49.306V62.7776H52.6941V64.6801Z" fill="#A3A3A3" stroke="#A3A3A3" stroke-width="0.390625"/>
<path d="M92.95 59.8074H86.5916C85.7713 59.8074 85.1064 60.4723 85.1064 61.2926V66.1654C85.1064 66.9858 85.7713 67.6506 86.5916 67.6506H92.95C93.7703 67.6506 94.4352 66.9858 94.4352 66.1654V61.2926C94.435 60.4723 93.7703 59.8074 92.95 59.8074ZM91.4648 64.6801H88.0768V62.7776H91.4648V64.6801Z" fill="#A3A3A3" stroke="#A3A3A3" stroke-width="0.390625"/>
<path d="M44.4697 18.2233H26.4461C25.626 18.2233 24.9609 18.8881 24.9609 19.7084C24.9609 20.5287 25.626 21.1936 26.4461 21.1936H44.4697C46.0508 21.1936 47.3371 22.4797 47.3371 24.0608V50.7637C47.3371 52.3447 46.0508 53.6309 44.4697 53.6309H17.767C16.1859 53.6309 14.8996 52.3447 14.8996 50.7637V24.0608C14.8996 22.4797 16.1857 21.1936 17.767 21.1936C18.5871 21.1936 19.2521 20.5287 19.2521 19.7084C19.2521 18.8881 18.5871 18.2233 17.767 18.2233C14.5482 18.2233 11.9293 20.842 11.9293 24.0608V50.7637C11.9293 53.9824 14.548 56.6012 17.767 56.6012H44.4697C47.6885 56.6012 50.3074 53.9824 50.3074 50.7637V24.0608C50.3072 20.842 47.6885 18.2233 44.4697 18.2233Z" fill="#A3A3A3" stroke="#A3A3A3" stroke-width="0.390625"/>
<path d="M84.0736 18.2233H66.248C65.4277 18.2233 64.7629 18.8881 64.7629 19.7084C64.7629 20.5287 65.4277 21.1936 66.248 21.1936H84.0736C85.6547 21.1936 86.9408 22.4797 86.9408 24.0608V50.7637C86.9408 52.3447 85.6547 53.6309 84.0736 53.6309H57.3707C55.7896 53.6309 54.5035 52.3447 54.5035 50.7637V24.0608C54.5035 22.4797 55.7896 21.1936 57.3707 21.1936C58.191 21.1936 58.8559 20.5287 58.8559 19.7084C58.8559 18.8881 58.191 18.2233 57.3707 18.2233C54.152 18.2233 51.5332 20.842 51.5332 24.0608V50.7637C51.5332 53.9824 54.152 56.6012 57.3707 56.6012H84.0736C87.2924 56.6012 89.9111 53.9824 89.9111 50.7637V24.0608C89.9111 20.842 87.2922 18.2233 84.0736 18.2233Z" fill="#A3A3A3" stroke="#A3A3A3" stroke-width="0.390625"/>
<path d="M247.256 7.18201H240.897C240.077 7.18201 239.412 7.84685 239.412 8.66716V13.3422C239.412 14.1625 240.077 14.8273 240.897 14.8273H247.256C248.076 14.8273 248.741 14.1625 248.741 13.3422V8.66716C248.741 7.84666 248.076 7.18201 247.256 7.18201ZM245.771 11.8568H242.382V10.1521H245.771V11.8568Z" fill="#A3A3A3" stroke="#A3A3A3" stroke-width="0.390625"/>
<path d="M221.409 7.18201H215.05C214.23 7.18201 213.565 7.84685 213.565 8.66716V13.3422C213.565 14.1623 214.23 14.8273 215.05 14.8273H221.409C222.229 14.8273 222.894 14.1625 222.894 13.3422V8.66716C222.894 7.84666 222.229 7.18201 221.409 7.18201ZM216.535 11.8568V10.1521H219.923V11.8568H216.535Z" fill="#A3A3A3" stroke="#A3A3A3" stroke-width="0.390625"/>
<path d="M234.332 7.18201H227.974C227.154 7.18201 226.489 7.84685 226.489 8.66716V13.3422C226.489 14.1625 227.154 14.8273 227.974 14.8273H234.332C235.152 14.8273 235.817 14.1625 235.817 13.3422V8.66716C235.817 7.84666 235.153 7.18201 234.332 7.18201ZM232.847 11.8568H229.459V10.1521H232.847V11.8568Z" fill="#A3A3A3" stroke="#A3A3A3" stroke-width="0.390625"/>
<path d="M286.026 7.18201H279.668C278.848 7.18201 278.183 7.84685 278.183 8.66716V13.3422C278.183 14.1625 278.848 14.8273 279.668 14.8273H286.026C286.847 14.8273 287.512 14.1625 287.512 13.3422V8.66716C287.512 7.84666 286.847 7.18201 286.026 7.18201ZM284.541 11.8568H281.153V10.1521H284.541V11.8568Z" fill="#A3A3A3" stroke="#A3A3A3" stroke-width="0.390625"/>
<path d="M273.103 7.18201H266.744C265.924 7.18201 265.259 7.84685 265.259 8.66716V13.3422C265.259 14.1625 265.924 14.8273 266.744 14.8273H273.103C273.923 14.8273 274.588 14.1625 274.588 13.3422V8.66716C274.588 7.84666 273.923 7.18201 273.103 7.18201ZM271.617 11.8568H268.229V10.1521H271.617V11.8568Z" fill="#A3A3A3" stroke="#A3A3A3" stroke-width="0.390625"/>
<path d="M273.103 59.8074H266.744C265.924 59.8074 265.259 60.4723 265.259 61.2926V66.1654C265.259 66.9858 265.924 67.6506 266.744 67.6506H273.103C273.923 67.6506 274.588 66.9858 274.588 66.1654V61.2926C274.588 60.4723 273.923 59.8074 273.103 59.8074ZM268.229 64.6801V62.7776H271.618V64.6801H268.229Z" fill="#A3A3A3" stroke="#A3A3A3" stroke-width="0.390625"/>
<path d="M234.332 59.8074H227.974C227.154 59.8074 226.488 60.4723 226.488 61.2926V66.1654C226.488 66.9858 227.154 67.6506 227.974 67.6506H234.332C235.152 67.6506 235.817 66.9858 235.817 66.1654V61.2926C235.817 60.4723 235.152 59.8074 234.332 59.8074ZM232.847 64.6801H229.459V62.7776H232.847V64.6801Z" fill="#A3A3A3" stroke="#A3A3A3" stroke-width="0.390625"/>
<path d="M247.256 59.8074H240.897C240.077 59.8074 239.412 60.4723 239.412 61.2926V66.1654C239.412 66.9858 240.077 67.6506 240.897 67.6506H247.256C248.076 67.6506 248.741 66.9858 248.741 66.1654V61.2926C248.741 60.4723 248.076 59.8074 247.256 59.8074ZM245.771 64.6801H242.383V62.7776H245.771V64.6801Z" fill="#A3A3A3" stroke="#A3A3A3" stroke-width="0.390625"/>
<path d="M305.515 1H218.229C217.409 1 216.744 1.66484 216.744 2.48516C216.744 3.30547 217.409 3.97031 218.229 3.97031H304.03V18.2234H301.847C299.609 18.2234 297.788 20.0441 297.788 22.2822V52.4787C297.788 54.7168 299.609 56.5375 301.847 56.5375H304.03V70.8623H209.97V56.5375H212.153C214.391 56.5375 216.212 54.7168 216.212 52.4787V22.2822C216.212 20.0441 214.391 18.2234 212.153 18.2234H209.97V2.48516C209.97 1.66484 209.305 1 208.485 1C207.665 1 207 1.66484 207 2.48516V19.7086V55.0523V72.3475C207 73.1678 207.665 73.8326 208.485 73.8326H305.515C306.335 73.8326 307 73.1678 307 72.3475V55.0523V19.7086V2.48516C307 1.66484 306.335 1 305.515 1ZM209.97 21.1936H212.153C212.754 21.1936 213.242 21.6818 213.242 22.282V52.4785C213.242 53.0787 212.754 53.567 212.153 53.567H209.97V21.1936ZM304.03 53.5672H301.847C301.247 53.5672 300.758 53.0789 300.758 52.4787V22.2822C300.758 21.682 301.247 21.1937 301.847 21.1937H304.03V53.5672Z" fill="#A3A3A3" stroke="#A3A3A3" stroke-width="0.390625"/>
<path d="M298.95 7.18201H292.592C291.771 7.18201 291.106 7.84685 291.106 8.66716V13.3422C291.106 14.1625 291.771 14.8273 292.592 14.8273H298.95C299.77 14.8273 300.435 14.1625 300.435 13.3422V8.66716C300.435 7.84666 299.77 7.18201 298.95 7.18201ZM297.465 11.8568H294.077V10.1521H297.465V11.8568Z" fill="#A3A3A3" stroke="#A3A3A3" stroke-width="0.390625"/>
<path d="M221.409 59.8074H215.05C214.23 59.8074 213.565 60.4723 213.565 61.2926V66.1654C213.565 66.9858 214.23 67.6506 215.05 67.6506H221.409C222.229 67.6506 222.894 66.9858 222.894 66.1654V61.2926C222.894 60.4723 222.229 59.8074 221.409 59.8074ZM216.535 64.6801V62.7776H219.923V64.6801H216.535Z" fill="#A3A3A3" stroke="#A3A3A3" stroke-width="0.390625"/>
<path d="M260.179 7.18182H253.821C253.001 7.18182 252.336 7.84667 252.336 8.66698V13.342C252.336 14.1623 253.001 14.8271 253.821 14.8271H260.179C261 14.8271 261.664 14.1623 261.664 13.342V8.66698C261.664 7.84667 261 7.18182 260.179 7.18182ZM258.694 11.857H255.306V10.1523H258.694V11.857Z" fill="#A3A3A3" stroke="#A3A3A3" stroke-width="0.390625"/>
<path d="M286.026 59.8074H279.668C278.847 59.8074 278.183 60.4723 278.183 61.2926V66.1654C278.183 66.9858 278.847 67.6506 279.668 67.6506H286.026C286.846 67.6506 287.511 66.9858 287.511 66.1654V61.2926C287.511 60.4723 286.846 59.8074 286.026 59.8074ZM284.541 64.6801H281.153V62.7776H284.541V64.6801Z" fill="#A3A3A3" stroke="#A3A3A3" stroke-width="0.390625"/>
<path d="M260.179 59.8074H253.821C253.001 59.8074 252.336 60.4723 252.336 61.2926V66.1654C252.336 66.9858 253.001 67.6506 253.821 67.6506H260.179C261 67.6506 261.664 66.9858 261.664 66.1654V61.2926C261.664 60.4723 261 59.8074 260.179 59.8074ZM258.694 64.6801H255.306V62.7776H258.694V64.6801Z" fill="#A3A3A3" stroke="#A3A3A3" stroke-width="0.390625"/>
<path d="M298.95 59.8074H292.592C291.771 59.8074 291.106 60.4723 291.106 61.2926V66.1654C291.106 66.9858 291.771 67.6506 292.592 67.6506H298.95C299.77 67.6506 300.435 66.9858 300.435 66.1654V61.2926C300.435 60.4723 299.77 59.8074 298.95 59.8074ZM297.465 64.6801H294.077V62.7776H297.465V64.6801Z" fill="#A3A3A3" stroke="#A3A3A3" stroke-width="0.390625"/>
<path d="M250.47 18.2233H232.446C231.626 18.2233 230.961 18.8881 230.961 19.7084C230.961 20.5287 231.626 21.1936 232.446 21.1936H250.47C252.051 21.1936 253.337 22.4797 253.337 24.0608V50.7637C253.337 52.3447 252.051 53.6309 250.47 53.6309H223.767C222.186 53.6309 220.9 52.3447 220.9 50.7637V24.0608C220.9 22.4797 222.186 21.1936 223.767 21.1936C224.587 21.1936 225.252 20.5287 225.252 19.7084C225.252 18.8881 224.587 18.2233 223.767 18.2233C220.548 18.2233 217.929 20.842 217.929 24.0608V50.7637C217.929 53.9824 220.548 56.6012 223.767 56.6012H250.47C253.688 56.6012 256.307 53.9824 256.307 50.7637V24.0608C256.307 20.842 253.688 18.2233 250.47 18.2233Z" fill="#A3A3A3" stroke="#A3A3A3" stroke-width="0.390625"/>
<path d="M290.074 18.2233H272.248C271.428 18.2233 270.763 18.8881 270.763 19.7084C270.763 20.5287 271.428 21.1936 272.248 21.1936H290.074C291.655 21.1936 292.941 22.4797 292.941 24.0608V50.7637C292.941 52.3447 291.655 53.6309 290.074 53.6309H263.371C261.79 53.6309 260.504 52.3447 260.504 50.7637V24.0608C260.504 22.4797 261.79 21.1936 263.371 21.1936C264.191 21.1936 264.856 20.5287 264.856 19.7084C264.856 18.8881 264.191 18.2233 263.371 18.2233C260.152 18.2233 257.533 20.842 257.533 24.0608V50.7637C257.533 53.9824 260.152 56.6012 263.371 56.6012H290.074C293.292 56.6012 295.911 53.9824 295.911 50.7637V24.0608C295.911 20.842 293.292 18.2233 290.074 18.2233Z" fill="#A3A3A3" stroke="#A3A3A3" stroke-width="0.390625"/>
<path d="M348.256 7.18201H341.897C341.077 7.18201 340.412 7.84685 340.412 8.66716V13.3422C340.412 14.1625 341.077 14.8273 341.897 14.8273H348.256C349.076 14.8273 349.741 14.1625 349.741 13.3422V8.66716C349.741 7.84666 349.076 7.18201 348.256 7.18201ZM346.771 11.8568H343.382V10.1521H346.771V11.8568Z" fill="#A3A3A3" stroke="#A3A3A3" stroke-width="0.390625"/>
<path d="M322.409 7.18201H316.05C315.23 7.18201 314.565 7.84685 314.565 8.66716V13.3422C314.565 14.1623 315.23 14.8273 316.05 14.8273H322.409C323.229 14.8273 323.894 14.1625 323.894 13.3422V8.66716C323.894 7.84666 323.229 7.18201 322.409 7.18201ZM317.535 11.8568V10.1521H320.923V11.8568H317.535Z" fill="#A3A3A3" stroke="#A3A3A3" stroke-width="0.390625"/>
<path d="M335.332 7.18201H328.974C328.154 7.18201 327.489 7.84685 327.489 8.66716V13.3422C327.489 14.1625 328.154 14.8273 328.974 14.8273H335.332C336.152 14.8273 336.817 14.1625 336.817 13.3422V8.66716C336.817 7.84666 336.153 7.18201 335.332 7.18201ZM333.847 11.8568H330.459V10.1521H333.847V11.8568Z" fill="#A3A3A3" stroke="#A3A3A3" stroke-width="0.390625"/>
<path d="M387.026 7.18201H380.668C379.848 7.18201 379.183 7.84685 379.183 8.66716V13.3422C379.183 14.1625 379.848 14.8273 380.668 14.8273H387.026C387.847 14.8273 388.512 14.1625 388.512 13.3422V8.66716C388.512 7.84666 387.847 7.18201 387.026 7.18201ZM385.541 11.8568H382.153V10.1521H385.541V11.8568Z" fill="#A3A3A3" stroke="#A3A3A3" stroke-width="0.390625"/>
<path d="M374.103 7.18201H367.744C366.924 7.18201 366.259 7.84685 366.259 8.66716V13.3422C366.259 14.1625 366.924 14.8273 367.744 14.8273H374.103C374.923 14.8273 375.588 14.1625 375.588 13.3422V8.66716C375.588 7.84666 374.923 7.18201 374.103 7.18201ZM372.617 11.8568H369.229V10.1521H372.617V11.8568Z" fill="#A3A3A3" stroke="#A3A3A3" stroke-width="0.390625"/>
<path d="M374.103 59.8074H367.744C366.924 59.8074 366.259 60.4723 366.259 61.2926V66.1654C366.259 66.9858 366.924 67.6506 367.744 67.6506H374.103C374.923 67.6506 375.588 66.9858 375.588 66.1654V61.2926C375.588 60.4723 374.923 59.8074 374.103 59.8074ZM369.229 64.6801V62.7776H372.618V64.6801H369.229Z" fill="#A3A3A3" stroke="#A3A3A3" stroke-width="0.390625"/>
<path d="M335.332 59.8074H328.974C328.154 59.8074 327.488 60.4723 327.488 61.2926V66.1654C327.488 66.9858 328.154 67.6506 328.974 67.6506H335.332C336.152 67.6506 336.817 66.9858 336.817 66.1654V61.2926C336.817 60.4723 336.152 59.8074 335.332 59.8074ZM333.847 64.6801H330.459V62.7776H333.847V64.6801Z" fill="#A3A3A3" stroke="#A3A3A3" stroke-width="0.390625"/>
<path d="M348.256 59.8074H341.897C341.077 59.8074 340.412 60.4723 340.412 61.2926V66.1654C340.412 66.9858 341.077 67.6506 341.897 67.6506H348.256C349.076 67.6506 349.741 66.9858 349.741 66.1654V61.2926C349.741 60.4723 349.076 59.8074 348.256 59.8074ZM346.771 64.6801H343.383V62.7776H346.771V64.6801Z" fill="#A3A3A3" stroke="#A3A3A3" stroke-width="0.390625"/>
<path d="M406.515 1H319.229C318.409 1 317.744 1.66484 317.744 2.48516C317.744 3.30547 318.409 3.97031 319.229 3.97031H405.03V18.2234H402.847C400.609 18.2234 398.788 20.0441 398.788 22.2822V52.4787C398.788 54.7168 400.609 56.5375 402.847 56.5375H405.03V70.8623H310.97V56.5375H313.153C315.391 56.5375 317.212 54.7168 317.212 52.4787V22.2822C317.212 20.0441 315.391 18.2234 313.153 18.2234H310.97V2.48516C310.97 1.66484 310.305 1 309.485 1C308.665 1 308 1.66484 308 2.48516V19.7086V55.0523V72.3475C308 73.1678 308.665 73.8326 309.485 73.8326H406.515C407.335 73.8326 408 73.1678 408 72.3475V55.0523V19.7086V2.48516C408 1.66484 407.335 1 406.515 1ZM310.97 21.1936H313.153C313.754 21.1936 314.242 21.6818 314.242 22.282V52.4785C314.242 53.0787 313.754 53.567 313.153 53.567H310.97V21.1936ZM405.03 53.5672H402.847C402.247 53.5672 401.758 53.0789 401.758 52.4787V22.2822C401.758 21.682 402.247 21.1937 402.847 21.1937H405.03V53.5672Z" fill="#A3A3A3" stroke="#A3A3A3" stroke-width="0.390625"/>
<path d="M399.95 7.18201H393.592C392.771 7.18201 392.106 7.84685 392.106 8.66716V13.3422C392.106 14.1625 392.771 14.8273 393.592 14.8273H399.95C400.77 14.8273 401.435 14.1625 401.435 13.3422V8.66716C401.435 7.84666 400.77 7.18201 399.95 7.18201ZM398.465 11.8568H395.077V10.1521H398.465V11.8568Z" fill="#A3A3A3" stroke="#A3A3A3" stroke-width="0.390625"/>
<path d="M322.409 59.8074H316.05C315.23 59.8074 314.565 60.4723 314.565 61.2926V66.1654C314.565 66.9858 315.23 67.6506 316.05 67.6506H322.409C323.229 67.6506 323.894 66.9858 323.894 66.1654V61.2926C323.894 60.4723 323.229 59.8074 322.409 59.8074ZM317.535 64.6801V62.7776H320.923V64.6801H317.535Z" fill="#A3A3A3" stroke="#A3A3A3" stroke-width="0.390625"/>
<path d="M361.179 7.18182H354.821C354.001 7.18182 353.336 7.84667 353.336 8.66698V13.342C353.336 14.1623 354.001 14.8271 354.821 14.8271H361.179C362 14.8271 362.664 14.1623 362.664 13.342V8.66698C362.664 7.84667 362 7.18182 361.179 7.18182ZM359.694 11.857H356.306V10.1523H359.694V11.857Z" fill="#A3A3A3" stroke="#A3A3A3" stroke-width="0.390625"/>
<path d="M387.026 59.8074H380.668C379.847 59.8074 379.183 60.4723 379.183 61.2926V66.1654C379.183 66.9858 379.847 67.6506 380.668 67.6506H387.026C387.846 67.6506 388.511 66.9858 388.511 66.1654V61.2926C388.511 60.4723 387.846 59.8074 387.026 59.8074ZM385.541 64.6801H382.153V62.7776H385.541V64.6801Z" fill="#A3A3A3" stroke="#A3A3A3" stroke-width="0.390625"/>
<path d="M361.179 59.8074H354.821C354.001 59.8074 353.336 60.4723 353.336 61.2926V66.1654C353.336 66.9858 354.001 67.6506 354.821 67.6506H361.179C362 67.6506 362.664 66.9858 362.664 66.1654V61.2926C362.664 60.4723 362 59.8074 361.179 59.8074ZM359.694 64.6801H356.306V62.7776H359.694V64.6801Z" fill="#A3A3A3" stroke="#A3A3A3" stroke-width="0.390625"/>
<path d="M399.95 59.8074H393.592C392.771 59.8074 392.106 60.4723 392.106 61.2926V66.1654C392.106 66.9858 392.771 67.6506 393.592 67.6506H399.95C400.77 67.6506 401.435 66.9858 401.435 66.1654V61.2926C401.435 60.4723 400.77 59.8074 399.95 59.8074ZM398.465 64.6801H395.077V62.7776H398.465V64.6801Z" fill="#A3A3A3" stroke="#A3A3A3" stroke-width="0.390625"/>
<path d="M351.47 18.2233H333.446C332.626 18.2233 331.961 18.8881 331.961 19.7084C331.961 20.5287 332.626 21.1936 333.446 21.1936H351.47C353.051 21.1936 354.337 22.4797 354.337 24.0608V50.7637C354.337 52.3447 353.051 53.6309 351.47 53.6309H324.767C323.186 53.6309 321.9 52.3447 321.9 50.7637V24.0608C321.9 22.4797 323.186 21.1936 324.767 21.1936C325.587 21.1936 326.252 20.5287 326.252 19.7084C326.252 18.8881 325.587 18.2233 324.767 18.2233C321.548 18.2233 318.929 20.842 318.929 24.0608V50.7637C318.929 53.9824 321.548 56.6012 324.767 56.6012H351.47C354.688 56.6012 357.307 53.9824 357.307 50.7637V24.0608C357.307 20.842 354.688 18.2233 351.47 18.2233Z" fill="#A3A3A3" stroke="#A3A3A3" stroke-width="0.390625"/>
<path d="M391.074 18.2233H373.248C372.428 18.2233 371.763 18.8881 371.763 19.7084C371.763 20.5287 372.428 21.1936 373.248 21.1936H391.074C392.655 21.1936 393.941 22.4797 393.941 24.0608V50.7637C393.941 52.3447 392.655 53.6309 391.074 53.6309H364.371C362.79 53.6309 361.504 52.3447 361.504 50.7637V24.0608C361.504 22.4797 362.79 21.1936 364.371 21.1936C365.191 21.1936 365.856 20.5287 365.856 19.7084C365.856 18.8881 365.191 18.2233 364.371 18.2233C361.152 18.2233 358.533 20.842 358.533 24.0608V50.7637C358.533 53.9824 361.152 56.6012 364.371 56.6012H391.074C394.292 56.6012 396.911 53.9824 396.911 50.7637V24.0608C396.911 20.842 394.292 18.2233 391.074 18.2233Z" fill="#A3A3A3" stroke="#A3A3A3" stroke-width="0.390625"/>
<path d="M144.256 7.18201H137.897C137.077 7.18201 136.412 7.84685 136.412 8.66716V13.3422C136.412 14.1625 137.077 14.8273 137.897 14.8273H144.256C145.076 14.8273 145.741 14.1625 145.741 13.3422V8.66716C145.741 7.84666 145.076 7.18201 144.256 7.18201ZM142.771 11.8568H139.382V10.1521H142.771V11.8568Z" fill="#A3A3A3" stroke="#A3A3A3" stroke-width="0.390625"/>
<path d="M118.409 7.18201H112.05C111.23 7.18201 110.565 7.84685 110.565 8.66716V13.3422C110.565 14.1623 111.23 14.8273 112.05 14.8273H118.409C119.229 14.8273 119.894 14.1625 119.894 13.3422V8.66716C119.894 7.84666 119.229 7.18201 118.409 7.18201ZM113.535 11.8568V10.1521H116.923V11.8568H113.535Z" fill="#A3A3A3" stroke="#A3A3A3" stroke-width="0.390625"/>
<path d="M131.332 7.18201H124.974C124.154 7.18201 123.489 7.84685 123.489 8.66716V13.3422C123.489 14.1625 124.154 14.8273 124.974 14.8273H131.332C132.152 14.8273 132.817 14.1625 132.817 13.3422V8.66716C132.817 7.84666 132.153 7.18201 131.332 7.18201ZM129.847 11.8568H126.459V10.1521H129.847V11.8568Z" fill="#A3A3A3" stroke="#A3A3A3" stroke-width="0.390625"/>
<path d="M183.026 7.18201H176.668C175.848 7.18201 175.183 7.84685 175.183 8.66716V13.3422C175.183 14.1625 175.848 14.8273 176.668 14.8273H183.026C183.847 14.8273 184.512 14.1625 184.512 13.3422V8.66716C184.512 7.84666 183.847 7.18201 183.026 7.18201ZM181.541 11.8568H178.153V10.1521H181.541V11.8568Z" fill="#A3A3A3" stroke="#A3A3A3" stroke-width="0.390625"/>
<path d="M170.103 7.18201H163.744C162.924 7.18201 162.259 7.84685 162.259 8.66716V13.3422C162.259 14.1625 162.924 14.8273 163.744 14.8273H170.103C170.923 14.8273 171.588 14.1625 171.588 13.3422V8.66716C171.588 7.84666 170.923 7.18201 170.103 7.18201ZM168.617 11.8568H165.229V10.1521H168.617V11.8568Z" fill="#A3A3A3" stroke="#A3A3A3" stroke-width="0.390625"/>
<path d="M170.103 59.8074H163.744C162.924 59.8074 162.259 60.4723 162.259 61.2926V66.1654C162.259 66.9858 162.924 67.6506 163.744 67.6506H170.103C170.923 67.6506 171.588 66.9858 171.588 66.1654V61.2926C171.588 60.4723 170.923 59.8074 170.103 59.8074ZM165.229 64.6801V62.7776H168.618V64.6801H165.229Z" fill="#A3A3A3" stroke="#A3A3A3" stroke-width="0.390625"/>
<path d="M131.332 59.8074H124.974C124.154 59.8074 123.488 60.4723 123.488 61.2926V66.1654C123.488 66.9858 124.154 67.6506 124.974 67.6506H131.332C132.152 67.6506 132.817 66.9858 132.817 66.1654V61.2926C132.817 60.4723 132.152 59.8074 131.332 59.8074ZM129.847 64.6801H126.459V62.7776H129.847V64.6801Z" fill="#A3A3A3" stroke="#A3A3A3" stroke-width="0.390625"/>
<path d="M144.256 59.8074H137.897C137.077 59.8074 136.412 60.4723 136.412 61.2926V66.1654C136.412 66.9858 137.077 67.6506 137.897 67.6506H144.256C145.076 67.6506 145.741 66.9858 145.741 66.1654V61.2926C145.741 60.4723 145.076 59.8074 144.256 59.8074ZM142.771 64.6801H139.383V62.7776H142.771V64.6801Z" fill="#A3A3A3" stroke="#A3A3A3" stroke-width="0.390625"/>
<path d="M202.515 1H115.229C114.409 1 113.744 1.66484 113.744 2.48516C113.744 3.30547 114.409 3.97031 115.229 3.97031H201.03V18.2234H198.847C196.609 18.2234 194.788 20.0441 194.788 22.2822V52.4787C194.788 54.7168 196.609 56.5375 198.847 56.5375H201.03V70.8623H106.97V56.5375H109.153C111.391 56.5375 113.212 54.7168 113.212 52.4787V22.2822C113.212 20.0441 111.391 18.2234 109.153 18.2234H106.97V2.48516C106.97 1.66484 106.305 1 105.485 1C104.665 1 104 1.66484 104 2.48516V19.7086V55.0523V72.3475C104 73.1678 104.665 73.8326 105.485 73.8326H202.515C203.335 73.8326 204 73.1678 204 72.3475V55.0523V19.7086V2.48516C204 1.66484 203.335 1 202.515 1ZM106.97 21.1936H109.153C109.754 21.1936 110.242 21.6818 110.242 22.282V52.4785C110.242 53.0787 109.754 53.567 109.153 53.567H106.97V21.1936ZM201.03 53.5672H198.847C198.247 53.5672 197.758 53.0789 197.758 52.4787V22.2822C197.758 21.682 198.247 21.1937 198.847 21.1937H201.03V53.5672Z" fill="#A3A3A3" stroke="#A3A3A3" stroke-width="0.390625"/>
<path d="M195.95 7.18201H189.592C188.771 7.18201 188.106 7.84685 188.106 8.66716V13.3422C188.106 14.1625 188.771 14.8273 189.592 14.8273H195.95C196.77 14.8273 197.435 14.1625 197.435 13.3422V8.66716C197.435 7.84666 196.77 7.18201 195.95 7.18201ZM194.465 11.8568H191.077V10.1521H194.465V11.8568Z" fill="#A3A3A3" stroke="#A3A3A3" stroke-width="0.390625"/>
<path d="M118.409 59.8074H112.05C111.23 59.8074 110.565 60.4723 110.565 61.2926V66.1654C110.565 66.9858 111.23 67.6506 112.05 67.6506H118.409C119.229 67.6506 119.894 66.9858 119.894 66.1654V61.2926C119.894 60.4723 119.229 59.8074 118.409 59.8074ZM113.535 64.6801V62.7776H116.923V64.6801H113.535Z" fill="#A3A3A3" stroke="#A3A3A3" stroke-width="0.390625"/>
<path d="M157.179 7.18182H150.821C150.001 7.18182 149.336 7.84667 149.336 8.66698V13.342C149.336 14.1623 150.001 14.8271 150.821 14.8271H157.179C158 14.8271 158.664 14.1623 158.664 13.342V8.66698C158.664 7.84667 158 7.18182 157.179 7.18182ZM155.694 11.857H152.306V10.1523H155.694V11.857Z" fill="#A3A3A3" stroke="#A3A3A3" stroke-width="0.390625"/>
<path d="M183.026 59.8074H176.668C175.847 59.8074 175.183 60.4723 175.183 61.2926V66.1654C175.183 66.9858 175.847 67.6506 176.668 67.6506H183.026C183.846 67.6506 184.511 66.9858 184.511 66.1654V61.2926C184.511 60.4723 183.846 59.8074 183.026 59.8074ZM181.541 64.6801H178.153V62.7776H181.541V64.6801Z" fill="#A3A3A3" stroke="#A3A3A3" stroke-width="0.390625"/>
<path d="M157.179 59.8074H150.821C150.001 59.8074 149.336 60.4723 149.336 61.2926V66.1654C149.336 66.9858 150.001 67.6506 150.821 67.6506H157.179C158 67.6506 158.664 66.9858 158.664 66.1654V61.2926C158.664 60.4723 158 59.8074 157.179 59.8074ZM155.694 64.6801H152.306V62.7776H155.694V64.6801Z" fill="#A3A3A3" stroke="#A3A3A3" stroke-width="0.390625"/>
<path d="M195.95 59.8074H189.592C188.771 59.8074 188.106 60.4723 188.106 61.2926V66.1654C188.106 66.9858 188.771 67.6506 189.592 67.6506H195.95C196.77 67.6506 197.435 66.9858 197.435 66.1654V61.2926C197.435 60.4723 196.77 59.8074 195.95 59.8074ZM194.465 64.6801H191.077V62.7776H194.465V64.6801Z" fill="#A3A3A3" stroke="#A3A3A3" stroke-width="0.390625"/>
<path d="M147.47 18.2233H129.446C128.626 18.2233 127.961 18.8881 127.961 19.7084C127.961 20.5287 128.626 21.1936 129.446 21.1936H147.47C149.051 21.1936 150.337 22.4797 150.337 24.0608V50.7637C150.337 52.3447 149.051 53.6309 147.47 53.6309H120.767C119.186 53.6309 117.9 52.3447 117.9 50.7637V24.0608C117.9 22.4797 119.186 21.1936 120.767 21.1936C121.587 21.1936 122.252 20.5287 122.252 19.7084C122.252 18.8881 121.587 18.2233 120.767 18.2233C117.548 18.2233 114.929 20.842 114.929 24.0608V50.7637C114.929 53.9824 117.548 56.6012 120.767 56.6012H147.47C150.688 56.6012 153.307 53.9824 153.307 50.7637V24.0608C153.307 20.842 150.688 18.2233 147.47 18.2233Z" fill="#A3A3A3" stroke="#A3A3A3" stroke-width="0.390625"/>
<path d="M187.074 18.2233H169.248C168.428 18.2233 167.763 18.8881 167.763 19.7084C167.763 20.5287 168.428 21.1936 169.248 21.1936H187.074C188.655 21.1936 189.941 22.4797 189.941 24.0608V50.7637C189.941 52.3447 188.655 53.6309 187.074 53.6309H160.371C158.79 53.6309 157.504 52.3447 157.504 50.7637V24.0608C157.504 22.4797 158.79 21.1936 160.371 21.1936C161.191 21.1936 161.856 20.5287 161.856 19.7084C161.856 18.8881 161.191 18.2233 160.371 18.2233C157.152 18.2233 154.533 20.842 154.533 24.0608V50.7637C154.533 53.9824 157.152 56.6012 160.371 56.6012H187.074C190.292 56.6012 192.911 53.9824 192.911 50.7637V24.0608C192.911 20.842 190.292 18.2233 187.074 18.2233Z" fill="#A3A3A3" stroke="#A3A3A3" stroke-width="0.390625"/>
</svg>
