<?xml version="1.0" standalone="no"?>
<!DOCTYPE svg PUBLIC "-//W3C//DTD SVG 20010904//EN"
 "http://www.w3.org/TR/2001/REC-SVG-20010904/DTD/svg10.dtd">
<svg version="1.0" xmlns="http://www.w3.org/2000/svg"
 width="840.000000pt" height="878.000000pt" viewBox="0 0 840.000000 878.000000"
 preserveAspectRatio="xMidYMid meet">

<g transform="translate(0.000000,878.000000) scale(0.100000,-0.100000)"
fill="#000000" stroke="none">
<path d="M2890 8350 c-354 -47 -625 -127 -940 -276 -616 -293 -1111 -780
-1419 -1394 -169 -339 -263 -654 -306 -1030 -22 -185 -16 -608 10 -770 57
-362 140 -627 292 -930 222 -445 520 -802 916 -1098 436 -326 941 -524 1497
-588 200 -22 597 -15 790 15 510 79 977 275 1385 581 669 502 1086 1221 1207
2080 20 147 17 623 -5 775 -77 516 -259 974 -546 1375 -45 63 -57 86 -46 88 9
2 64 -11 122 -29 752 -228 1236 -719 1518 -1541 117 -341 165 -612 165 -938 0
-367 -60 -655 -222 -1070 -35 -88 -149 -329 -263 -555 -264 -521 -318 -649
-367 -878 -29 -138 -32 -419 -5 -547 85 -399 324 -729 722 -995 113 -75 303
-174 395 -205 254 -86 490 168 383 412 -36 80 -74 112 -217 182 -179 88 -301
171 -417 286 -189 187 -272 360 -272 570 0 148 46 275 288 780 396 828 513
1183 571 1723 19 182 14 546 -11 727 -58 424 -181 818 -373 1195 -349 682
-943 1191 -1662 1423 -306 99 -573 142 -965 158 l-170 7 -90 54 c-271 164
-619 301 -949 372 -287 62 -724 80 -1016 41z m600 -580 c161 -20 271 -62 350
-136 83 -77 120 -184 120 -342 -1 -157 -71 -296 -229 -452 -148 -145 -359
-272 -454 -272 -131 0 -432 202 -566 379 -68 90 -118 193 -130 273 -12 74 -1
200 23 266 56 160 200 252 442 283 98 12 344 13 444 1z m-1886 -1230 c174 -49
299 -166 404 -375 75 -150 132 -349 132 -458 0 -63 -33 -118 -123 -204 -125
-120 -277 -215 -447 -279 -68 -25 -87 -28 -205 -29 -121 0 -135 2 -197 28
-129 55 -208 129 -249 235 -18 46 -23 77 -22 162 0 115 9 168 59 341 67 232
154 407 249 501 105 103 228 127 399 78z m3643 -11 c148 -71 266 -276 365
-634 30 -110 33 -132 33 -265 0 -129 -3 -150 -22 -193 -48 -103 -155 -185
-301 -232 -77 -25 -241 -16 -339 18 -218 77 -499 278 -556 399 -34 71 -15 224
50 398 66 176 136 291 236 387 73 70 131 105 210 128 145 42 228 40 324 -6z
m-1846 -819 c79 -27 123 -56 182 -119 155 -166 145 -429 -22 -583 -118 -110
-264 -145 -412 -99 -199 62 -327 269 -290 467 47 256 303 414 542 334z m1138
-1355 c110 -18 223 -54 304 -97 120 -64 235 -228 258 -368 33 -195 -108 -385
-451 -613 -320 -213 -523 -229 -699 -55 -104 103 -157 215 -168 356 -19 260
122 682 251 746 89 44 331 59 505 31z m-2064 -39 c60 -19 90 -47 144 -141 157
-269 206 -638 110 -828 -53 -104 -154 -204 -244 -242 -150 -63 -367 -1 -642
184 -208 140 -314 245 -365 361 -29 65 -34 163 -13 236 69 240 249 379 567
440 98 18 373 12 443 -10z"/>
</g>
</svg>
