<svg width="132" height="103" viewBox="0 0 132 103" fill="none" xmlns="http://www.w3.org/2000/svg">
<path d="M2 0C0.895429 0 0 0.895431 0 2V101C0 102.105 0.895431 103 2 103H130C131.105 103 132 102.105 132 101V2C132 0.895429 131.105 0 130 0H2ZM18.4398 26.3217H12.3639C11.2772 26.3217 10.396 25.3524 10.396 24.1568V11.9663C10.396 10.7707 11.2772 9.80165 12.3639 9.80165H18.4395C19.5262 9.80165 20.4069 10.7707 20.4069 11.9663V24.1568C20.4069 25.3524 19.5262 26.3217 18.4398 26.3217ZM12.3639 41.811H18.4395C19.5262 41.811 20.4069 42.7803 20.4069 43.9762V56.1666C20.4069 57.3623 19.5262 58.3316 18.4395 58.3316H12.3639C11.2772 58.3316 10.396 57.3623 10.396 56.1666V43.9762C10.396 42.7803 11.2772 41.811 12.3639 41.811ZM12.3639 76.678H18.4395C19.5262 76.678 20.4069 77.6476 20.4069 78.8429V91.0337C20.4069 92.2293 19.5262 93.1986 18.4395 93.1986H12.3639C11.2772 93.1986 10.396 92.2293 10.396 91.0337V78.8429C10.396 77.6476 11.2772 76.678 12.3639 76.678ZM51.3 71.5997V31.4003C51.3 29.7337 52.9395 28.6921 54.2512 29.5255L85.8913 49.6252C87.203 50.4584 87.203 52.5416 85.8913 53.3748L54.2515 73.4745C52.9397 74.3076 51.3 73.266 51.3 71.5997ZM119.636 26.3217H113.56C112.474 26.3217 111.592 25.3524 111.592 24.1568V11.9663C111.592 10.7707 112.474 9.80165 113.56 9.80165H119.636C120.722 9.80165 121.603 10.7707 121.603 11.9663V24.1568C121.603 25.3524 120.722 26.3217 119.636 26.3217ZM113.56 41.811H119.636C120.722 41.811 121.603 42.7803 121.603 43.9762V56.1666C121.603 57.3623 120.722 58.3316 119.636 58.3316H113.56C112.474 58.3316 111.592 57.3623 111.592 56.1666V43.9762C111.593 42.7803 112.474 41.811 113.56 41.811ZM113.56 76.678H119.636C120.722 76.678 121.603 77.6476 121.603 78.8429V91.0337C121.603 92.2293 120.722 93.1986 119.636 93.1986H113.56C112.474 93.1986 111.592 92.2293 111.592 91.0337V78.8429C111.593 77.6476 112.474 76.678 113.56 76.678Z" fill="white"/>
</svg>
