<svg width="1920" height="1080" viewBox="0 0 1920 1080" fill="none" xmlns="http://www.w3.org/2000/svg">
<rect width="1920" height="1080" fill="#CBC6C6"/>
<path d="M1140.43 340.078H913.31C906.969 340.078 900.889 342.71 896.405 347.396C891.922 352.082 889.403 358.438 889.403 365.065C889.403 371.692 891.922 378.048 896.405 382.734C900.889 387.42 906.969 390.053 913.31 390.053H1140.43C1146.77 390.053 1152.85 392.685 1157.33 397.372C1161.82 402.058 1164.34 408.413 1164.34 415.04V583.957L1119.39 536.98C1111.71 528.99 1102.39 522.924 1092.14 519.239C1089.15 518.189 1086 517.763 1082.86 517.986C1079.72 518.209 1076.66 519.076 1073.84 520.538C1071.02 521.999 1068.5 524.027 1066.43 526.506C1064.36 528.984 1062.78 531.864 1061.77 534.981C1060.77 538.099 1060.36 541.392 1060.58 544.674C1060.79 547.956 1061.62 551.162 1063.02 554.109C1064.42 557.055 1066.36 559.685 1068.73 561.849C1071.1 564.012 1073.85 565.665 1076.84 566.715C1080.14 567.803 1083.11 569.786 1085.44 572.463L1164.58 654.672C1164.44 655.917 1164.44 657.175 1164.58 658.42C1164.47 659.667 1164.47 660.921 1164.58 662.168C1165.47 663.766 1166.52 665.272 1167.68 666.666C1168.27 667.689 1168.99 668.615 1169.84 669.415C1171.27 670.802 1172.88 671.979 1174.62 672.913C1175.44 673.507 1176.32 674.01 1177.25 674.412C1180.03 675.719 1183.04 676.4 1186.09 676.411C1192.43 676.411 1198.51 673.779 1203 669.092C1207.48 664.406 1210 658.051 1210 651.424V415.04C1210.01 395.543 1202.75 376.809 1189.76 362.813C1176.77 348.818 1159.08 340.662 1140.43 340.078ZM750.979 297.349C746.478 292.643 740.372 290 734.005 290C727.639 290 721.533 292.643 717.031 297.349C712.529 302.054 710 308.436 710 315.09C710 321.744 712.529 328.126 717.031 332.831L750.262 367.564C739.76 380.953 734.016 397.728 734.005 415.04V664.917C734.005 684.798 741.562 703.865 755.012 717.924C768.463 731.982 786.705 739.88 805.727 739.88H1106.72L1147.36 782.609C1149.59 784.951 1152.23 786.81 1155.14 788.078C1158.06 789.347 1161.18 790 1164.34 790C1167.49 790 1170.62 789.347 1173.53 788.078C1176.44 786.81 1179.09 784.951 1181.31 782.609C1183.55 780.286 1185.33 777.522 1186.54 774.477C1187.76 771.432 1188.38 768.166 1188.38 764.867C1188.38 761.569 1187.76 758.303 1186.54 755.258C1185.33 752.213 1183.55 749.449 1181.31 747.126L750.979 297.349ZM781.82 415.04C781.878 411.024 782.862 407.081 784.689 403.546L849.717 471.263C840.828 474.801 832.701 480.152 825.809 487.005L781.82 533.982V415.04ZM805.727 689.905C799.387 689.905 793.306 687.272 788.822 682.586C784.339 677.9 781.82 671.544 781.82 664.917V604.447L860.714 522.237C865.183 517.659 871.191 515.095 877.449 515.095C883.707 515.095 889.715 517.659 894.184 522.237L1054.6 689.905H805.727Z" fill="#9E9A9A"/>
</svg>
