<svg width="690" height="962" viewBox="0 0 690 962" fill="none" xmlns="http://www.w3.org/2000/svg">
<rect width="690" height="962" fill="#CBC6C6"/>
<path d="M453.258 361.047H316.986C313.182 361.047 309.533 362.626 306.843 365.438C304.153 368.249 302.642 372.063 302.642 376.039C302.642 380.015 304.153 383.829 306.843 386.64C309.533 389.452 313.182 391.032 316.986 391.032H453.258C457.062 391.032 460.711 392.611 463.401 395.423C466.091 398.235 467.602 402.048 467.602 406.024V507.374L440.635 479.188C436.024 474.394 430.433 470.754 424.282 468.543C422.493 467.913 420.602 467.658 418.718 467.792C416.834 467.925 414.993 468.446 413.302 469.323C411.61 470.2 410.1 471.416 408.859 472.903C407.617 474.39 406.668 476.118 406.065 477.989C405.462 479.859 405.218 481.835 405.345 483.804C405.473 485.774 405.971 487.697 406.81 489.465C407.649 491.233 408.814 492.811 410.236 494.109C411.659 495.407 413.312 496.399 415.102 497.029C417.084 497.682 418.866 498.871 420.266 500.478L467.746 549.803C467.664 550.55 467.664 551.305 467.746 552.052C467.681 552.8 467.681 553.553 467.746 554.301C468.285 555.26 468.909 556.163 469.61 557C469.96 557.613 470.395 558.169 470.901 558.649C471.762 559.481 472.727 560.188 473.77 560.748C474.265 561.104 474.794 561.406 475.348 561.647C477.017 562.432 478.826 562.84 480.656 562.847C484.46 562.847 488.109 561.267 490.799 558.455C493.489 555.644 495 551.83 495 547.854V406.024C495.005 394.326 490.649 383.085 482.856 374.688C475.063 366.291 464.446 361.397 453.258 361.047ZM219.588 335.409C216.887 332.586 213.223 331 209.403 331C205.583 331 201.92 332.586 199.219 335.409C196.517 338.232 195 342.061 195 346.054C195 350.046 196.517 353.876 199.219 356.699L219.157 377.538C212.856 385.572 209.41 395.637 209.403 406.024V555.95C209.403 567.879 213.937 579.319 222.007 587.754C230.078 596.189 241.023 600.928 252.436 600.928H433.032L457.418 626.565C458.751 627.97 460.338 629.086 462.086 629.847C463.834 630.608 465.709 631 467.602 631C469.496 631 471.371 630.608 473.119 629.847C474.867 629.086 476.453 627.97 477.787 626.565C479.131 625.171 480.198 623.513 480.927 621.686C481.655 619.859 482.03 617.9 482.03 615.92C482.03 613.941 481.655 611.982 480.927 610.155C480.198 608.328 479.131 606.67 477.787 605.276L219.588 335.409ZM238.092 406.024C238.127 403.614 238.717 401.249 239.813 399.128L278.83 439.758C273.497 441.881 268.62 445.091 264.486 449.203L238.092 477.389V406.024ZM252.436 570.943C248.632 570.943 244.983 569.363 242.293 566.552C239.603 563.74 238.092 559.926 238.092 555.95V519.668L285.428 470.342C288.11 467.595 291.715 466.057 295.469 466.057C299.224 466.057 302.829 467.595 305.511 470.342L401.761 570.943H252.436Z" fill="#9E9A9A"/>
</svg>
