<svg width="500" height="700" viewBox="0 0 500 700" fill="none" xmlns="http://www.w3.org/2000/svg">
<rect width="500" height="700" fill="#DDDDDD"/>
<path d="M248.537 257.182V327H240.355L202.31 272.182H201.628V327H193.173V257.182H201.355L239.537 312.136H240.219V257.182H248.537ZM285.636 328.091C280.909 328.091 276.761 326.966 273.193 324.716C269.648 322.466 266.875 319.318 264.875 315.273C262.898 311.227 261.909 306.5 261.909 301.091C261.909 295.636 262.898 290.875 264.875 286.807C266.875 282.739 269.648 279.58 273.193 277.33C276.761 275.08 280.909 273.955 285.636 273.955C290.364 273.955 294.5 275.08 298.045 277.33C301.614 279.58 304.386 282.739 306.364 286.807C308.364 290.875 309.364 295.636 309.364 301.091C309.364 306.5 308.364 311.227 306.364 315.273C304.386 319.318 301.614 322.466 298.045 324.716C294.5 326.966 290.364 328.091 285.636 328.091ZM285.636 320.864C289.227 320.864 292.182 319.943 294.5 318.102C296.818 316.261 298.534 313.841 299.648 310.841C300.761 307.841 301.318 304.591 301.318 301.091C301.318 297.591 300.761 294.33 299.648 291.307C298.534 288.284 296.818 285.841 294.5 283.977C292.182 282.114 289.227 281.182 285.636 281.182C282.045 281.182 279.091 282.114 276.773 283.977C274.455 285.841 272.739 288.284 271.625 291.307C270.511 294.33 269.955 297.591 269.955 301.091C269.955 304.591 270.511 307.841 271.625 310.841C272.739 313.841 274.455 316.261 276.773 318.102C279.091 319.943 282.045 320.864 285.636 320.864ZM127.753 373.182V443H119.298V373.182H127.753ZM143.614 443V390.636H151.386V398.818H152.068C153.159 396.023 154.92 393.852 157.352 392.307C159.784 390.739 162.705 389.955 166.114 389.955C169.568 389.955 172.443 390.739 174.739 392.307C177.057 393.852 178.864 396.023 180.159 398.818H180.705C182.045 396.114 184.057 393.966 186.739 392.375C189.42 390.761 192.636 389.955 196.386 389.955C201.068 389.955 204.898 391.42 207.875 394.352C210.852 397.261 212.341 401.795 212.341 407.955V443H204.295V407.955C204.295 404.091 203.239 401.33 201.125 399.67C199.011 398.011 196.523 397.182 193.659 397.182C189.977 397.182 187.125 398.295 185.102 400.523C183.08 402.727 182.068 405.523 182.068 408.909V443H173.886V407.136C173.886 404.159 172.92 401.761 170.989 399.943C169.057 398.102 166.568 397.182 163.523 397.182C161.432 397.182 159.477 397.739 157.659 398.852C155.864 399.966 154.409 401.511 153.295 403.489C152.205 405.443 151.659 407.705 151.659 410.273V443H143.614ZM242.46 444.227C239.142 444.227 236.131 443.602 233.426 442.352C230.722 441.08 228.574 439.25 226.983 436.864C225.392 434.455 224.597 431.545 224.597 428.136C224.597 425.136 225.188 422.705 226.369 420.841C227.551 418.955 229.131 417.477 231.108 416.409C233.085 415.341 235.267 414.545 237.653 414.023C240.063 413.477 242.483 413.045 244.915 412.727C248.097 412.318 250.676 412.011 252.653 411.807C254.653 411.58 256.108 411.205 257.017 410.682C257.949 410.159 258.415 409.25 258.415 407.955V407.682C258.415 404.318 257.494 401.705 255.653 399.841C253.835 397.977 251.074 397.045 247.369 397.045C243.528 397.045 240.517 397.886 238.335 399.568C236.153 401.25 234.619 403.045 233.733 404.955L226.097 402.227C227.46 399.045 229.278 396.568 231.551 394.795C233.847 393 236.347 391.75 239.051 391.045C241.778 390.318 244.46 389.955 247.097 389.955C248.778 389.955 250.71 390.159 252.892 390.568C255.097 390.955 257.222 391.761 259.267 392.989C261.335 394.216 263.051 396.068 264.415 398.545C265.778 401.023 266.46 404.341 266.46 408.5V443H258.415V435.909H258.006C257.46 437.045 256.551 438.261 255.278 439.557C254.006 440.852 252.313 441.955 250.199 442.864C248.085 443.773 245.506 444.227 242.46 444.227ZM243.688 437C246.869 437 249.551 436.375 251.733 435.125C253.938 433.875 255.597 432.261 256.71 430.284C257.847 428.307 258.415 426.227 258.415 424.045V416.682C258.074 417.091 257.324 417.466 256.165 417.807C255.028 418.125 253.71 418.409 252.21 418.659C250.733 418.886 249.29 419.091 247.881 419.273C246.494 419.432 245.369 419.568 244.506 419.682C242.415 419.955 240.46 420.398 238.642 421.011C236.847 421.602 235.392 422.5 234.278 423.705C233.188 424.886 232.642 426.5 232.642 428.545C232.642 431.341 233.676 433.455 235.744 434.886C237.835 436.295 240.483 437 243.688 437ZM302.281 463.727C298.395 463.727 295.054 463.227 292.259 462.227C289.463 461.25 287.134 459.955 285.27 458.341C283.429 456.75 281.963 455.045 280.872 453.227L287.281 448.727C288.009 449.682 288.929 450.773 290.043 452C291.156 453.25 292.679 454.33 294.611 455.239C296.565 456.17 299.122 456.636 302.281 456.636C306.509 456.636 309.997 455.614 312.747 453.568C315.497 451.523 316.872 448.318 316.872 443.955V433.318H316.19C315.599 434.273 314.759 435.455 313.668 436.864C312.599 438.25 311.054 439.489 309.031 440.58C307.031 441.648 304.327 442.182 300.918 442.182C296.69 442.182 292.895 441.182 289.531 439.182C286.19 437.182 283.543 434.273 281.588 430.455C279.656 426.636 278.69 422 278.69 416.545C278.69 411.182 279.634 406.511 281.52 402.534C283.406 398.534 286.031 395.443 289.395 393.261C292.759 391.057 296.645 389.955 301.054 389.955C304.463 389.955 307.168 390.523 309.168 391.659C311.19 392.773 312.736 394.045 313.804 395.477C314.895 396.886 315.736 398.045 316.327 398.955H317.145V390.636H324.918V444.5C324.918 449 323.895 452.659 321.849 455.477C319.827 458.318 317.099 460.398 313.668 461.716C310.259 463.057 306.463 463.727 302.281 463.727ZM302.009 434.955C305.236 434.955 307.963 434.216 310.19 432.739C312.418 431.261 314.111 429.136 315.27 426.364C316.429 423.591 317.009 420.273 317.009 416.409C317.009 412.636 316.44 409.307 315.304 406.42C314.168 403.534 312.486 401.273 310.259 399.636C308.031 398 305.281 397.182 302.009 397.182C298.599 397.182 295.759 398.045 293.486 399.773C291.236 401.5 289.543 403.818 288.406 406.727C287.293 409.636 286.736 412.864 286.736 416.409C286.736 420.045 287.304 423.261 288.44 426.057C289.599 428.83 291.304 431.011 293.554 432.602C295.827 434.17 298.645 434.955 302.009 434.955ZM361.599 444.091C356.554 444.091 352.202 442.977 348.543 440.75C344.906 438.5 342.099 435.364 340.122 431.341C338.168 427.295 337.19 422.591 337.19 417.227C337.19 411.864 338.168 407.136 340.122 403.045C342.099 398.932 344.849 395.727 348.372 393.432C351.918 391.114 356.054 389.955 360.781 389.955C363.509 389.955 366.202 390.409 368.861 391.318C371.52 392.227 373.94 393.705 376.122 395.75C378.304 397.773 380.043 400.455 381.338 403.795C382.634 407.136 383.281 411.25 383.281 416.136V419.545H342.918V412.591H375.099C375.099 409.636 374.509 407 373.327 404.682C372.168 402.364 370.509 400.534 368.349 399.193C366.213 397.852 363.69 397.182 360.781 397.182C357.577 397.182 354.804 397.977 352.463 399.568C350.145 401.136 348.361 403.182 347.111 405.705C345.861 408.227 345.236 410.932 345.236 413.818V418.455C345.236 422.409 345.918 425.761 347.281 428.511C348.668 431.239 350.588 433.318 353.043 434.75C355.497 436.159 358.349 436.864 361.599 436.864C363.713 436.864 365.622 436.568 367.327 435.977C369.054 435.364 370.543 434.455 371.793 433.25C373.043 432.023 374.009 430.5 374.69 428.682L382.463 430.864C381.645 433.5 380.27 435.818 378.338 437.818C376.406 439.795 374.02 441.341 371.179 442.455C368.338 443.545 365.145 444.091 361.599 444.091Z" fill="#878383"/>
</svg>
