<svg width="500" height="750" viewBox="0 0 500 750" fill="none" xmlns="http://www.w3.org/2000/svg">
<rect width="500" height="750" fill="#CBC6C6"/>
<path d="M328.448 266.469H229.7C226.943 266.469 224.299 267.635 222.35 269.71C220.401 271.785 219.306 274.599 219.306 277.534C219.306 280.469 220.401 283.283 222.35 285.358C224.299 287.433 226.943 288.599 229.7 288.599H328.448C331.204 288.599 333.848 289.765 335.798 291.84C337.747 293.915 338.842 296.73 338.842 299.664V374.465L319.301 353.663C315.959 350.124 311.908 347.438 307.451 345.806C306.154 345.341 304.784 345.153 303.419 345.252C302.054 345.35 300.72 345.734 299.494 346.381C298.268 347.029 297.174 347.927 296.274 349.024C295.375 350.122 294.687 351.397 294.25 352.777C293.813 354.158 293.636 355.616 293.729 357.07C293.821 358.523 294.182 359.943 294.79 361.248C295.398 362.553 296.242 363.717 297.273 364.675C298.304 365.633 299.502 366.365 300.798 366.83C302.235 367.312 303.526 368.19 304.54 369.375L338.946 405.78C338.887 406.331 338.887 406.888 338.946 407.44C338.899 407.992 338.899 408.547 338.946 409.099C339.337 409.807 339.789 410.474 340.297 411.091C340.551 411.544 340.866 411.954 341.233 412.308C341.857 412.923 342.556 413.444 343.312 413.857C343.67 414.121 344.053 414.343 344.455 414.521C345.665 415.1 346.975 415.402 348.301 415.407C351.058 415.407 353.702 414.241 355.651 412.166C357.601 410.091 358.696 407.276 358.696 404.341V299.664C358.699 291.03 355.543 282.734 349.895 276.537C344.248 270.339 336.555 266.728 328.448 266.469ZM159.121 247.547C157.164 245.464 154.509 244.293 151.741 244.293C148.973 244.293 146.319 245.464 144.361 247.547C142.404 249.631 141.304 252.457 141.304 255.404C141.304 258.35 142.404 261.176 144.361 263.26L158.81 278.641C154.244 284.569 151.746 291.998 151.741 299.664V410.317C151.741 419.121 155.027 427.564 160.875 433.789C166.723 440.015 174.654 443.512 182.925 443.512H313.791L331.462 462.434C332.428 463.471 333.578 464.294 334.845 464.856C336.111 465.418 337.47 465.707 338.842 465.707C340.214 465.707 341.573 465.418 342.84 464.856C344.106 464.294 345.256 463.471 346.222 462.434C347.197 461.405 347.97 460.181 348.498 458.833C349.025 457.484 349.297 456.038 349.297 454.577C349.297 453.117 349.025 451.67 348.498 450.322C347.97 448.974 347.197 447.75 346.222 446.721L159.121 247.547ZM172.53 299.664C172.556 297.886 172.984 296.14 173.778 294.574L202.051 324.561C198.186 326.128 194.653 328.498 191.656 331.532L172.53 352.335V299.664ZM182.925 421.382C180.168 421.382 177.524 420.216 175.575 418.141C173.625 416.066 172.53 413.251 172.53 410.317V383.539L206.832 347.134C208.775 345.107 211.388 343.971 214.108 343.971C216.829 343.971 219.441 345.107 221.384 347.134L291.131 421.382H182.925Z" fill="#9E9A9A"/>
</svg>
