<svg width="367" height="367" viewBox="0 0 367 367" fill="none" xmlns="http://www.w3.org/2000/svg">
<path d="M332.949 309.587C323.175 291.956 308.222 279.68 293.833 270.999C279.435 262.323 265.387 257.159 257.165 254.074C250.9 251.748 244.285 248.73 239.741 245.53C237.466 243.95 235.743 242.331 234.788 241.014C233.811 239.665 233.616 238.835 233.608 238.177C233.608 231.91 233.608 224.074 233.608 213.588C234.514 211.299 235.461 209.433 236.53 207.699C238.341 204.724 240.753 201.718 243.173 197.196C245.182 193.425 246.974 188.679 248.359 182.467C249.578 181.874 250.793 181.188 251.978 180.36C255.61 177.852 258.684 174.197 261.197 169.417C263.738 164.615 265.931 158.595 268.268 150.441L268.249 150.495L268.268 150.435C269.47 146.204 270.047 142.488 270.049 139.108C270.091 133.675 268.392 128.967 265.582 125.789C264.603 124.664 263.543 123.813 262.479 123.078C262.833 118.896 263.472 113.348 264.078 106.95C264.78 99.5251 265.414 91.0354 265.414 82.2438C265.387 68.3322 263.905 53.6422 258.02 40.9657C255.07 34.6435 250.933 28.8274 245.283 24.2342C240.078 19.9922 233.578 16.9515 226.038 15.3495C220.92 11.4257 215.965 7.99085 209.789 5.6032C203.121 3.01915 195.425 1.82281 185.258 1.82855C182.051 1.82855 178.58 1.94324 174.782 2.17404C164.169 2.22207 155.48 3.5123 147.089 3.49008C141.236 3.48435 135.46 2.92453 128.768 1.02L125.183 0L122.326 2.39267C113.538 9.85596 108.821 20.9792 105.935 33.3375C103.083 45.751 102.159 59.7056 102.151 73.5405C102.154 91.5952 103.767 109.43 105.139 122.815C104.093 123.495 103.054 124.28 102.068 125.328C99.0391 128.5 97.1403 133.406 97.1926 139.097C97.1955 142.471 97.7718 146.186 98.9732 150.412L98.9789 150.434C102.101 161.299 104.925 168.417 108.745 173.817C110.648 176.5 112.86 178.695 115.264 180.358C116.444 181.181 117.651 181.862 118.864 182.454C121.039 191.75 124.703 198.489 127.844 203.367C129.611 206.128 131.172 208.323 132.138 209.963C133.063 211.5 133.337 212.378 133.392 212.779C133.392 223.694 133.392 231.739 133.392 238.176C133.395 238.687 133.194 239.586 132.108 241.03C130.533 243.165 127.097 245.886 122.979 248.192C118.869 250.535 114.119 252.566 109.962 254.031C98.7703 257.993 77.5352 265.725 58.7343 280.778C49.3343 288.312 40.5098 297.741 34.0206 309.517C27.5286 321.283 23.4536 335.396 23.4679 351.8C23.4679 354.647 23.5891 357.573 23.8385 360.563L24.3761 367H342.624L343.162 360.563C343.411 357.578 343.532 354.664 343.532 351.816C343.546 335.419 339.46 321.326 332.949 309.587ZM329.434 352.951H37.5659C37.5602 352.573 37.5164 352.172 37.5164 351.8C37.5272 337.69 40.9241 326.128 46.3266 316.294C54.4185 301.576 67.2872 290.71 80.3558 282.829C93.4137 274.949 106.485 270.148 114.632 267.278C121.05 265.006 128.504 261.718 134.854 257.312C138.029 255.095 140.951 252.598 143.299 249.52C145.618 246.48 147.437 242.622 147.439 238.177C147.439 231.619 147.439 223.426 147.439 212.187V211.825L147.401 211.462C147.019 207.95 145.623 205.179 144.215 202.792C142.056 199.191 139.628 196.058 137.408 191.998C135.197 187.953 133.136 183.069 131.912 176.193L131.201 172.176L127.36 170.804C125.604 170.173 124.347 169.564 123.288 168.829C121.729 167.72 120.286 166.239 118.454 162.83C116.648 159.445 114.665 154.232 112.488 146.581V146.576C111.553 143.316 111.24 140.847 111.24 139.097C111.295 136.089 111.964 135.381 112.326 134.926C112.716 134.487 113.41 134.152 114.181 133.982L120.289 132.615L119.633 126.392C118.192 112.739 116.198 93.0381 116.198 73.5398C116.192 60.3636 117.127 47.2864 119.622 36.4921C121.691 27.3766 124.937 20.1334 128.976 15.5237C135.465 17.0046 141.474 17.5429 147.088 17.5379C156.991 17.5164 165.64 16.1874 175.163 16.2096H175.388L175.627 16.1989C179.196 15.9796 182.39 15.8749 185.258 15.8749C194.4 15.8799 200.099 16.9229 204.725 18.7062C209.346 20.4896 213.302 23.2063 218.652 27.3716L220.03 28.4411L221.745 28.7428C228.02 29.8675 232.668 32.1017 236.419 35.136C242.009 39.6683 245.772 46.3581 248.146 54.6558C250.512 62.9204 251.373 72.6115 251.365 82.2424C251.368 90.3537 250.776 98.4198 250.092 105.626C249.409 112.842 248.64 119.136 248.297 124.053H248.3C248.237 124.926 248.16 125.677 248.072 126.523L247.449 132.51L253.269 134.041C254.012 134.238 254.599 134.557 254.973 134.996C255.321 135.452 255.955 136.242 255.999 139.107C255.999 140.851 255.686 143.316 254.762 146.558L254.756 146.576C251.862 156.794 249.269 162.621 247.066 165.656C245.96 167.187 245.01 168.082 243.951 168.828C242.892 169.563 241.635 170.173 239.88 170.803L236.038 172.175L235.327 176.192C234.49 180.927 233.484 184.342 232.421 187.019C230.819 191.026 229.098 193.506 226.881 196.782C224.686 200.014 222.041 204.037 219.975 209.805L219.558 210.958V212.186C219.558 223.425 219.558 231.618 219.558 238.176C219.55 242.467 221.226 246.314 223.471 249.339C226.876 253.909 231.529 257.213 236.559 260.1C241.599 262.959 247.084 265.302 252.239 267.233C263.143 271.289 282.804 278.632 299.43 291.923C307.74 298.557 315.243 306.608 320.657 316.392C326.065 326.193 329.47 337.717 329.481 351.815C329.484 352.183 329.44 352.578 329.434 352.951Z" fill="url(#paint0_linear_566_1472)" fill-opacity="0.2"/>
<defs>
<linearGradient id="paint0_linear_566_1472" x1="183.5" y1="0" x2="183.5" y2="367" gradientUnits="userSpaceOnUse">
<stop offset="0.415" stop-color="#EEEEEE"/>
<stop offset="0.965" stop-color="#888888" stop-opacity="0"/>
</linearGradient>
</defs>
</svg>
